{
	"accessors" : 
	[
		{
			"bufferView" : 2,
			"byteOffset" : 0,
			"componentType" : 5126,
			"count" : 9984,
			"max" : 
			[
				1,
				1,
				1,
				1
			],
			"min" : 
			[
				0.05637409910559654,
				0.08919350802898407,
				0.06190747767686844,
				1
			],
			"name" : "accessor_color_m0-PolyPaper21_-39842",
			"type" : "VEC4"
		},
		{
			"bufferView" : 2,
			"byteOffset" : 159744,
			"componentType" : 5126,
			"count" : 1440,
			"max" : 
			[
				0.6800203323364258,
				0.6800203323364258,
				0.6800203323364258,
				0.2509804
			],
			"min" : 
			[
				0.6800203323364258,
				0.6800203323364258,
				0.6800203323364258,
				0.2509804
			],
			"name" : "accessor_color_m1-PolyGlass24_-37288",
			"type" : "VEC4"
		},
		{
			"bufferView" : 2,
			"byteOffset" : 182784,
			"componentType" : 5126,
			"count" : 24,
			"max" : 
			[
				1,
				1,
				1,
				1
			],
			"min" : 
			[
				1,
				1,
				1,
				1
			],
			"name" : "accessor_color_m2-PolyGem25_-38360",
			"type" : "VEC4"
		},
		{
			"bufferView" : 2,
			"byteOffset" : 183168,
			"componentType" : 5126,
			"count" : 432,
			"max" : 
			[
				0.05637409910559654,
				0.1011451631784439,
				0.1275297701358795,
				1
			],
			"min" : 
			[
				0.05637409910559654,
				0.1011451631784439,
				0.1275297701358795,
				1
			],
			"name" : "accessor_color_m3-PolyPaper17_-40128",
			"type" : "VEC4"
		},
		{
			"bufferView" : 0,
			"byteOffset" : 0,
			"componentType" : 5123,
			"count" : 14976,
			"max" : 
			[
				9983
			],
			"min" : 
			[
				0
			],
			"name" : "accessor_indices_0_m0-PolyPaper21_-39842",
			"type" : "SCALAR"
		},
		{
			"bufferView" : 0,
			"byteOffset" : 29952,
			"componentType" : 5123,
			"count" : 2160,
			"max" : 
			[
				1439
			],
			"min" : 
			[
				0
			],
			"name" : "accessor_indices_0_m1-PolyGlass24_-37288",
			"type" : "SCALAR"
		},
		{
			"bufferView" : 0,
			"byteOffset" : 34272,
			"componentType" : 5123,
			"count" : 36,
			"max" : 
			[
				23
			],
			"min" : 
			[
				0
			],
			"name" : "accessor_indices_0_m2-PolyGem25_-38360",
			"type" : "SCALAR"
		},
		{
			"bufferView" : 0,
			"byteOffset" : 34344,
			"componentType" : 5123,
			"count" : 648,
			"max" : 
			[
				431
			],
			"min" : 
			[
				0
			],
			"name" : "accessor_indices_0_m3-PolyPaper17_-40128",
			"type" : "SCALAR"
		},
		{
			"bufferView" : 1,
			"byteOffset" : 119808,
			"componentType" : 5126,
			"count" : 9984,
			"max" : 
			[
				1,
				1,
				1
			],
			"min" : 
			[
				-1,
				-1,
				-1
			],
			"name" : "accessor_normal_m0-PolyPaper21_-39842",
			"type" : "VEC3"
		},
		{
			"bufferView" : 1,
			"byteOffset" : 256896,
			"componentType" : 5126,
			"count" : 1440,
			"max" : 
			[
				1,
				1,
				1
			],
			"min" : 
			[
				-1,
				-1,
				-1
			],
			"name" : "accessor_normal_m1-PolyGlass24_-37288",
			"type" : "VEC3"
		},
		{
			"bufferView" : 1,
			"byteOffset" : 274464,
			"componentType" : 5126,
			"count" : 24,
			"max" : 
			[
				1,
				1,
				1
			],
			"min" : 
			[
				-1,
				-1,
				-1
			],
			"name" : "accessor_normal_m2-PolyGem25_-38360",
			"type" : "VEC3"
		},
		{
			"bufferView" : 1,
			"byteOffset" : 279936,
			"componentType" : 5126,
			"count" : 432,
			"max" : 
			[
				1,
				1,
				1
			],
			"min" : 
			[
				-1,
				-1,
				-1
			],
			"name" : "accessor_normal_m3-PolyPaper17_-40128",
			"type" : "VEC3"
		},
		{
			"bufferView" : 1,
			"byteOffset" : 0,
			"componentType" : 5126,
			"count" : 9984,
			"max" : 
			[
				0.7099871,
				1.919986,
				-0.4000318
			],
			"min" : 
			[
				-0.4500129,
				1.500002,
				-1.000032
			],
			"name" : "accessor_position_m0-PolyPaper21_-39842",
			"type" : "VEC3"
		},
		{
			"bufferView" : 1,
			"byteOffset" : 239616,
			"componentType" : 5126,
			"count" : 1440,
			"max" : 
			[
				0.5599872,
				1.889996,
				-0.4699654
			],
			"min" : 
			[
				0.03996133,
				1.529995,
				-0.8300284999999999
			],
			"name" : "accessor_position_m1-PolyGlass24_-37288",
			"type" : "VEC3"
		},
		{
			"bufferView" : 1,
			"byteOffset" : 274176,
			"componentType" : 5126,
			"count" : 24,
			"max" : 
			[
				0.1900326,
				1.529974,
				-0.4700093
			],
			"min" : 
			[
				0.1600326,
				1.509974,
				-0.5100093
			],
			"name" : "accessor_position_m2-PolyGem25_-38360",
			"type" : "VEC3"
		},
		{
			"bufferView" : 1,
			"byteOffset" : 274752,
			"componentType" : 5126,
			"count" : 432,
			"max" : 
			[
				0.449992,
				1.700039,
				-0.4899665
			],
			"min" : 
			[
				0.3399619,
				1.679965,
				-0.6400111000000001
			],
			"name" : "accessor_position_m3-PolyPaper17_-40128",
			"type" : "VEC3"
		}
	],
	"asset" : 
	{
		"copyright" : "Unknown",
		"generator" : "glTF 1-to-2 Upgrader for Google Blocks",
		"version" : "2.0"
	},
	"bufferViews" : 
	[
		{
			"buffer" : 0,
			"byteLength" : 35640,
			"byteOffset" : 0,
			"name" : "ushortBufferView",
			"target" : 34963
		},
		{
			"buffer" : 0,
			"byteLength" : 285120,
			"byteOffset" : 35640,
			"byteStride" : 12,
			"name" : "vec3BufferView",
			"target" : 34962
		},
		{
			"buffer" : 0,
			"byteLength" : 190080,
			"byteOffset" : 320760,
			"byteStride" : 16,
			"name" : "vec4BufferView",
			"target" : 34962
		}
	],
	"buffers" : 
	[
		{
			"byteLength" : 510840,
			"name" : "model",
			"uri" : "model.bin"
		}
	],
	"materials" : 
	[
		{
			"alphaMode" : "OPAQUE",
			"doubleSided" : false,
			"name" : "BlocksPaper",
			"pbrMetallicRoughness" : 
			{
				"baseColorFactor" : 
				[
					1,
					1,
					1,
					1
				],
				"metallicFactor" : 0,
				"roughnessFactor" : 0.6
			}
		},
		{
			"alphaMode" : "BLEND",
			"doubleSided" : false,
			"name" : "BlocksGlass",
			"pbrMetallicRoughness" : 
			{
				"baseColorFactor" : 
				[
					0.2,
					0.2,
					1,
					0.3
				],
				"metallicFactor" : 1,
				"roughnessFactor" : 0.4
			}
		},
		{
			"alphaMode" : "OPAQUE",
			"doubleSided" : true,
			"name" : "BlocksGem",
			"pbrMetallicRoughness" : 
			{
				"baseColorFactor" : 
				[
					1,
					0.4,
					1,
					1
				],
				"metallicFactor" : 0,
				"roughnessFactor" : 0.1
			}
		}
	],
	"meshes" : 
	[
		{
			"name" : "mesh_m0-PolyPaper21_-39842",
			"primitives" : 
			[
				{
					"attributes" : 
					{
						"COLOR_0" : 0,
						"NORMAL" : 8,
						"POSITION" : 12
					},
					"indices" : 4,
					"material" : 0,
					"mode" : 4
				}
			]
		},
		{
			"name" : "mesh_m1-PolyGlass24_-37288",
			"primitives" : 
			[
				{
					"attributes" : 
					{
						"COLOR_0" : 1,
						"NORMAL" : 9,
						"POSITION" : 13
					},
					"indices" : 5,
					"material" : 1,
					"mode" : 4
				}
			]
		},
		{
			"name" : "mesh_m2-PolyGem25_-38360",
			"primitives" : 
			[
				{
					"attributes" : 
					{
						"COLOR_0" : 2,
						"NORMAL" : 10,
						"POSITION" : 14
					},
					"indices" : 6,
					"material" : 2,
					"mode" : 4
				}
			]
		},
		{
			"name" : "mesh_m3-PolyPaper17_-40128",
			"primitives" : 
			[
				{
					"attributes" : 
					{
						"COLOR_0" : 3,
						"NORMAL" : 11,
						"POSITION" : 15
					},
					"indices" : 7,
					"material" : 0,
					"mode" : 4
				}
			]
		}
	],
	"nodes" : 
	[
		{
			"matrix" : 
			[
				1,
				0,
				0,
				0,
				0,
				1,
				0,
				0,
				0,
				0,
				1,
				0,
				0,
				0,
				0,
				1
			],
			"mesh" : 2,
			"name" : "node_MeshObject-133749824-PolyGem25"
		},
		{
			"matrix" : 
			[
				1,
				0,
				0,
				0,
				0,
				1,
				0,
				0,
				0,
				0,
				1,
				0,
				0,
				0,
				0,
				1
			],
			"mesh" : 3,
			"name" : "node_MeshObject-1751395904-PolyPaper17"
		},
		{
			"matrix" : 
			[
				1,
				0,
				0,
				0,
				0,
				1,
				0,
				0,
				0,
				0,
				1,
				0,
				0,
				0,
				0,
				1
			],
			"mesh" : 0,
			"name" : "node_MeshObject-764358208-PolyPaper21"
		},
		{
			"matrix" : 
			[
				1,
				0,
				0,
				0,
				0,
				1,
				0,
				0,
				0,
				0,
				1,
				0,
				0,
				0,
				0,
				1
			],
			"mesh" : 1,
			"name" : "node_MeshObject-885580288-PolyGlass24"
		}
	],
	"scene" : 0,
	"scenes" : 
	[
		{
			"extras" : {},
			"name" : "defaultScene",
			"nodes" : 
			[
				2,
				3,
				0,
				1
			]
		}
	]
}